HIERARCHY
ROOT Hips
{
  OFFSET 0 0 0
  CHANNELS 6 Xposition Yposition Zposition Zrotation Yrotation Xrotation
  JOINT LeftThigh
  {
    OFFSET 8.409438 0 -5.917753
    CHANNELS 3 Zrotation Yrotation Xrotation
    JOINT LeftLeg
    {
      OFFSET 0 0 -42.358652
      CHANNELS 3 Zrotation Yrotation Xrotation
      JOINT LeftFoot
      {
        OFFSET 0 0 -39.357303
        CHANNELS 3 Zrotation Yrotation Xrotation
      }
    }
  }
  JOINT RightThigh
  {
    OFFSET -8.409438 0 -5.917753
    CHANNELS 3 Zrotation Yrotation Xrotation
    JOINT RightLeg
    {
      OFFSET 0 0 -42.358652
      CHANNELS 3 Zrotation Yrotation Xrotation
      JOINT RightFoot
      {
        OFFSET 0 0 -39.357303
        CHANNELS 3 Zrotation Yrotation Xrotation
      }
    }
  }
  JOINT SpineLow
  {
    OFFSET 0 0 4.719101
    CHANNELS 3 Zrotation Yrotation Xrotation
    JOINT SpineMid
    {
      OFFSET 0 0 12.899191
      CHANNELS 3 Zrotation Yrotation Xrotation
      JOINT Chest
      {
        OFFSET 0 0 12.899191
        CHANNELS 3 Zrotation Yrotation Xrotation
        JOINT LeftShoulder
        {
          OFFSET 7.550562 1.41573 9.438202
          CHANNELS 3 Zrotation Yrotation Xrotation
          JOINT LeftArm
          {
            OFFSET 9.155056 0 4.247191
            CHANNELS 3 Zrotation Yrotation Xrotation
            JOINT LeftForearm
            {
              OFFSET 0 0 25.771955
              CHANNELS 3 Zrotation Yrotation Xrotation
              JOINT LeftHand
              {
                OFFSET 0 0 25.197169
                CHANNELS 3 Zrotation Yrotation Xrotation
              }
            }
          }
        }
        JOINT RightShoulder
        {
          OFFSET -7.550562 1.41573 9.438202
          CHANNELS 3 Zrotation Yrotation Xrotation
          JOINT RightArm
          {
            OFFSET -9.155056 0 4.247191
            CHANNELS 3 Zrotation Yrotation Xrotation
            JOINT RightForearm
            {
              OFFSET 0 0 -25.771955
              CHANNELS 3 Zrotation Yrotation Xrotation
              JOINT RightHand
              {
                OFFSET 0 0 -25.197169
                CHANNELS 3 Zrotation Yrotation Xrotation
              }
            }
          }
        }
        JOINT Neck
        {
          OFFSET 0 0 15.101124
          CHANNELS 3 Zrotation Yrotation Xrotation
          JOINT Head
          {
            OFFSET 0 0 11.325843
            CHANNELS 3 Zrotation Yrotation Xrotation
            End Site
            {
              OFFSET 0 0 14.157303
            }
          }
        }
      }
    }
  }
}
MOTION
Frames: 14
Frame Time: 0.0
0.0  101.685394  0.0  -0.759105  -33.855983  -104.297253  24.995368  -32.174147  -35.098999  7.975842  9.001967  64.352722  -0.834834  4.805526  5.563673  8.068372  13.966372  8.578634  -10.311833  10.105812  31.474279  7.122788  14.443791  -2.122262  -1.4098  0.150172  3.555683  -3.822032  0.616208  9.706801  -3.822032  0.616208  9.706801  -2.011481  23.944815  -1.198665  -130.431431  58.903451  -95.653696  -25.142367  -22.379715  93.774007  86.579162  -4.58801  -16.626432  -1.906383  -10.074269  10.341472  89.219541  25.987086  36.505734  12.975014  24.470345  -82.722716  54.069353  -0.05012  25.293664  8.459767  -1.126792  -5.621973  6.334894  -0.923226  -4.2017  
0.0  101.685394  0.0  -0.739313  -33.535933  -104.150461  25.473405  -31.56457  -35.470698  7.038854  9.309187  63.93429  -0.441376  4.827304  5.625148  8.202801  13.937552  8.314491  -10.378747  10.199995  31.817675  6.938902  14.634732  -2.12981  -1.481637  0.115439  3.57692  -4.022759  0.533351  9.766048  -4.022759  0.533351  9.766048  -1.761488  24.340006  -1.259043  -130.948167  58.828442  -95.793629  -25.331229  -22.368611  94.044347  86.504039  -4.677955  -16.50805  -1.755386  -9.867028  10.330242  89.77732  27.168527  36.528395  12.286003  24.784702  -83.635503  53.803266  -0.307636  25.032876  8.581128  -0.957797  -5.933413  6.427119  -0.801946  -4.437546  
0.0  101.685394  0.0  -0.764092  -33.230842  -104.012032  25.805211  -31.157407  -35.734479  6.301494  9.903151  63.585896  0.151776  4.753876  5.641555  8.041473  13.977549  7.996244  -10.382171  10.258382  32.11154  6.798864  14.81109  -2.07104  -1.552407  0.074146  3.598142  -4.221598  0.432594  9.825864  -4.221598  0.432594  9.825864  -1.561218  24.72856  -1.306869  -131.504922  58.726  -95.942612  -25.492093  -22.388852  94.21467  86.416858  -4.679519  -16.419129  -1.390121  -9.532836  10.428646  90.055564  28.590716  36.361695  11.774439  24.823445  -84.417343  53.811948  -0.437108  24.681077  8.764258  -0.776311  -6.154577  6.566068  -0.670751  -4.605853  
0.0  101.685394  0.0  -0.782387  -32.83941  -103.847507  25.746617  -30.872462  -35.960904  5.804805  10.798888  63.182413  0.950227  4.610236  5.715352  7.865819  14.129078  7.744971  -10.33663  10.278265  32.33074  6.800504  15.000601  -2.068355  -1.633035  0.033758  3.601711  -4.447378  0.334731  9.837545  -4.447378  0.334731  9.837545  -1.146721  25.174547  -1.189699  -132.172099  58.610454  -96.139421  -25.639838  -22.299247  94.466654  86.341864  -4.625327  -16.362517  -1.100834  -9.25973  10.443867  90.392092  29.967798  36.291744  11.384578  24.743243  -85.16582  54.037546  -0.563983  24.372349  8.876073  -0.65418  -6.321004  6.651064  -0.582672  -4.732386  
0.0  101.685394  0.0  -0.853071  -32.443756  -103.708476  25.389413  -30.818302  -36.09253  5.778374  11.366859  63.042613  1.510462  4.501659  5.735857  7.072505  14.364077  7.450573  -10.007494  10.304998  32.430107  6.925581  15.095297  -2.011694  -1.671541  -0.006344  3.598201  -4.55833  0.23093  9.830391  -4.55833  0.23093  9.83039  -0.974205  25.454935  -1.020601  -133.090972  58.501903  -96.512926  -25.77387  -22.250296  94.613016  86.291348  -4.521325  -16.391236  -0.834023  -8.982287  10.644458  90.416632  31.586538  36.062739  11.064257  24.706549  -86.070956  54.220383  -0.808581  24.296547  8.983979  -0.534542  -6.402686  6.733215  -0.495234  -4.795352  
0.0  101.685394  0.0  -0.929754  -32.156853  -103.600001  24.849199  -30.918577  -36.178159  6.167189  11.606845  63.094839  1.714405  4.407827  5.683178  6.40838  14.598767  7.299135  -9.614093  10.285872  32.429564  7.085604  15.14586  -1.984657  -1.715745  -0.051607  3.596366  -4.68557  0.114023  9.828283  -4.68557  0.114023  9.828283  -0.427543  25.786688  -0.846872  -134.498553  58.387529  -97.245398  -25.866382  -22.134714  94.843825  86.272184  -4.375714  -16.606903  -0.39429  -8.708211  10.795092  90.506421  33.253405  35.914735  10.734395  24.485645  -87.102206  54.389442  -1.113893  24.490124  9.09418  -0.466686  -6.481706  6.816561  -0.446659  -4.855585  
0.0  101.685394  0.0  -0.989834  -31.713629  -103.332323  24.125332  -30.949537  -36.394421  6.769676  11.558998  63.251115  1.710021  4.374159  5.651  5.427638  14.959046  6.996632  -9.176539  10.220053  32.337046  7.278599  15.1804  -1.926354  -1.763099  -0.097439  3.576908  -4.821534  -0.005252  9.778248  -4.821534  -0.005252  9.778248  -0.099294  25.961299  -0.895547  -136.433837  58.23809  -98.56017  -25.926681  -22.000884  95.110094  86.324049  -4.15495  -17.159145  0.104616  -8.43933  10.867419  90.489791  35.042758  35.678396  10.417884  23.996368  -88.211187  54.476245  -1.430083  24.875501  9.296974  -0.332628  -6.564401  6.970096  -0.349493  -4.919579  
0.0  101.685394  0.0  -0.91349  -31.669755  -103.122928  23.679968  -30.948826  -36.650516  7.576098  11.19884  63.580439  1.432224  4.358929  5.558912  4.957103  15.322934  6.735818  -8.761001  10.092273  32.219972  7.471134  15.231554  -1.891562  -1.747925  -0.12877  3.555585  -4.784823  -0.094408  9.722309  -4.784823  -0.094408  9.722309  0.518986  26.093589  -0.924887  -137.526296  57.165246  -101.400156  -25.632991  -20.205301  97.439249  86.483196  -3.837526  -18.166056  0.579385  -8.260855  10.83452  90.654105  36.861159  35.501007  10.093269  23.250279  -89.361581  54.477774  -1.779666  25.321625  9.445177  -0.277115  -6.644535  7.081852  -0.310677  -4.980522  
0.0  101.685394  0.0  -0.861368  -31.138695  -102.704151  22.974864  -30.736731  -37.106225  8.284598  10.756519  63.932742  1.067279  4.385306  5.454203  4.085632  15.778153  6.315786  -8.422244  9.936051  32.069413  7.500469  15.291295  -1.871718  -1.768494  -0.153621  3.514271  -4.844575  -0.162135  9.611253  -4.844575  -0.162135  9.611253  0.899004  25.968006  -0.992839  -140.567042  56.743224  -103.733354  -25.618558  -19.917922  98.017716  86.703644  -3.413099  -19.564515  1.088737  -8.138569  10.700819  90.588252  38.824345  35.11796  9.738009  22.292372  -90.528311  54.463028  -2.151016  25.656931  9.573769  -0.20764  -6.758845  7.179068  -0.261745  -5.067352  
0.0  101.685394  0.0  -0.711154  -30.72175  -102.333133  22.435642  -30.439394  -37.581791  8.649117  10.642062  64.006889  1.126918  4.492985  5.591294  3.260266  16.12993  5.873168  -7.540855  9.64842  32.102203  6.898558  15.320256  -2.046019  -1.74832  -0.156633  3.472286  -4.790008  -0.176317  9.496787  -4.790008  -0.176317  9.496787  1.242673  25.69242  -1.013537  -144.030611  56.180612  -106.510222  -25.647348  -19.549526  98.762189  86.879441  -2.953524  -21.157323  1.321695  -8.329485  10.267161  90.900136  40.58661  34.922802  9.339182  21.162417  -91.62852  54.563516  -2.537221  25.764715  9.639236  -0.189801  -6.875266  7.228373  -0.250924  -5.154974  
0.0  101.685394  0.0  -0.57779  -30.233702  -101.908766  21.972212  -30.047266  -38.153442  9.088029  10.36122  64.352482  0.941275  4.516844  5.498248  2.750551  16.535893  5.480836  -7.404022  9.459574  31.926727  6.724413  15.455762  -2.073528  -1.669649  -0.153717  3.43001  -4.575056  -0.182589  9.381086  -4.575056  -0.182589  9.381086  1.307889  25.27895  -0.970645  -147.781115  55.546165  -109.494662  -25.809437  -18.996377  99.670106  86.950685  -2.505293  -22.703825  1.538886  -8.505114  9.842704  90.666456  42.578351  34.274885  8.865915  19.906492  -92.644053  54.876049  -3.011836  25.611636  9.501563  -0.205917  -7.033531  7.124917  -0.263928  -5.273454  
0.0  101.685394  0.0  -0.440343  -29.775381  -101.485611  21.591126  -29.613217  -38.766971  9.228005  10.335296  64.518407  1.07671  4.612057  5.5515  2.433156  16.864425  5.144456  -7.392177  9.310506  31.70727  6.483793  15.517966  -2.072118  -1.537355  -0.138719  3.371087  -4.212144  -0.16422  9.219084  -4.212144  -0.16422  9.219084  1.215882  24.784075  -0.784027  -149.968977  53.946787  -113.384955  -25.308813  -16.761121  102.469462  86.992219  -2.131779  -24.149936  1.421706  -8.848536  9.369889  90.415959  44.54914  33.506604  8.354936  18.533372  -93.589933  55.394684  -3.643541  25.250773  9.209092  -0.286674  -7.151519  6.904575  -0.322929  -5.360754  
0.0  101.685394  0.0  -0.361724  -29.18374  -101.055521  21.190383  -29.140795  -39.380136  9.370305  10.328751  64.801176  1.137323  4.607438  5.476642  2.222149  17.151476  4.942951  -7.577305  9.159312  31.407387  6.345871  15.636667  -2.032062  -1.406365  -0.131232  3.291804  -3.853825  -0.166683  9.001966  -3.853824  -0.166683  9.001966  1.19884  24.328338  -0.373464  -154.154795  53.212745  -116.684059  -25.481226  -15.923216  103.527905  87.097396  -1.869976  -25.542642  1.409979  -9.158313  8.992461  89.722161  46.631376  32.406175  7.869833  16.978337  -94.520284  56.043738  -4.424272  24.799907  8.853206  -0.380458  -7.211082  6.63649  -0.389986  -5.404128  
0.0  101.685394  0.0  -0.284581  -28.57726  -100.753781  20.696661  -28.67462  -39.851809  9.437998  10.29681  65.077765  1.156937  4.640064  5.388059  2.264161  17.402216  4.972306  -7.950065  9.026948  31.039266  6.24891  15.720367  -1.986179  -1.309286  -0.124011  3.243751  -3.588025  -0.162811  8.870212  -3.588025  -0.162811  8.870212  1.455342  24.043842  0.011094  -158.479915  52.409005  -120.005874  -32.259712  -23.977999  94.421473  76.623283  -13.225872  -20.412815  1.621171  -9.401001  8.549491  88.889349  48.83674  31.146576  7.455886  15.233016  -95.456556  56.691747  -5.15235  24.348367  8.602998  -0.450433  -7.339174  6.447913  -0.441335  -5.499306  
